HIERARCHY
ROOT Hips
{
  OFFSET 53.3169 58.4778 11.1866
  CHANNELS 6 Xposition Yposition Zposition Zrotation Xrotation Yrotation
  JOINT spine
  {
    OFFSET 0 8.1325 0.467659
    CHANNELS 3 Zrotation Xrotation Yrotation
    JOINT spine1
    {
      OFFSET 0 10.3498 0
      CHANNELS 3 Zrotation Xrotation Yrotation
      JOINT spine2
      {
        OFFSET 0 9.91699 0
        CHANNELS 3 Zrotation Xrotation Yrotation
        JOINT Neck
        {
          OFFSET 0 25.461 1.2139
          CHANNELS 3 Zrotation Xrotation Yrotation
          JOINT Head
          {
            OFFSET 0 7.69245 0
            CHANNELS 3 Zrotation Xrotation Yrotation
            End Site
            {
              OFFSET 0 18.62 -6.14063
            }
          }
        }
        JOINT RightShoulder
        {
          OFFSET -4.17575 10.7096 -0.581445
          CHANNELS 3 Zrotation Xrotation Yrotation
          JOINT RightArm
          {
            OFFSET 0 14.0466 0
            CHANNELS 3 Zrotation Xrotation Yrotation
            JOINT RightArmRoll
            {
              OFFSET 0 7.09099 0
              CHANNELS 3 Zrotation Xrotation Yrotation
              JOINT RightForeArm
              {
                OFFSET 0 20.6535 0
                CHANNELS 3 Zrotation Xrotation Yrotation
                JOINT RightForeArmRoll
                {
                  OFFSET 0 7.95718 0
                  CHANNELS 3 Zrotation Xrotation Yrotation
                  JOINT RightHand
                  {
                    OFFSET 0 15.9683 0
                    CHANNELS 3 Zrotation Xrotation Yrotation
                    End Site
                    {
                      OFFSET 0 0 0
                    }
                  }
                }
              }
            }
          }
        }
        JOINT LeftShoulder
        {
          OFFSET 4.17575 10.7096 -0.581445
          CHANNELS 3 Zrotation Xrotation Yrotation
          JOINT LeftArm
          {
            OFFSET 0 14.0466 0
            CHANNELS 3 Zrotation Xrotation Yrotation
            JOINT LeftArmRoll
            {
              OFFSET 0 7.09098 0
              CHANNELS 3 Zrotation Xrotation Yrotation
              JOINT LeftForeArm
              {
                OFFSET 0 20.6535 0
                CHANNELS 3 Zrotation Xrotation Yrotation
                JOINT LeftForeArmRoll
                {
                  OFFSET 0 7.95718 0
                  CHANNELS 3 Zrotation Xrotation Yrotation
                  JOINT LeftHand
                  {
                    OFFSET 0 15.9683 0
                    CHANNELS 3 Zrotation Xrotation Yrotation
                    End Site
                    {
                      OFFSET 0 0 0
                    }
                  }
                }
              }
            }
          }
        }
      }
    }
  }
  JOINT RightUpLeg
  {
    OFFSET -7.20834 -1.32182 -1.10884
    CHANNELS 3 Zrotation Xrotation Yrotation
    JOINT RightUpLegRoll
    {
      OFFSET 0 18.7238 0
      CHANNELS 3 Zrotation Xrotation Yrotation
      JOINT RightLeg
      {
        OFFSET 0 -23.1866 0
        CHANNELS 3 Zrotation Xrotation Yrotation
        JOINT RightLegRoll
        {
          OFFSET 0 23.2624 0
          CHANNELS 3 Zrotation Xrotation Yrotation
          JOINT RightFoot
          {
            OFFSET 0 19.3621 0
            CHANNELS 3 Zrotation Xrotation Yrotation
            JOINT RightToeBase
            {
              OFFSET 0 16.1857 0
              CHANNELS 3 Zrotation Xrotation Yrotation
              End Site
              {
                OFFSET 0.00686052 7.83863 -0.903522
              }
            }
          }
        }
      }
    }
  }
  JOINT LeftUpLeg
  {
    OFFSET 7.20834 -1.32182 -1.10884
    CHANNELS 3 Zrotation Xrotation Yrotation
    JOINT LeftUpLegRoll
    {
      OFFSET 0 18.7239 0
      CHANNELS 3 Zrotation Xrotation Yrotation
      JOINT LeftLeg
      {
        OFFSET 0 23.1865 0
        CHANNELS 3 Zrotation Xrotation Yrotation
        JOINT LeftLegRoll
        {
          OFFSET 0 23.4775 0
          CHANNELS 3 Zrotation Xrotation Yrotation
          JOINT LeftFoot
          {
            OFFSET 0 19.147 0
            CHANNELS 3 Zrotation Xrotation Yrotation
            JOINT LeftToeBase
            {
              OFFSET 0 16.1857 0
              CHANNELS 3 Zrotation Xrotation Yrotation
              End Site
              {
                OFFSET -0.0307459 7.83862 -0.903522
              }
            }
          }
        }
      }
    }
  }
}
MOTION
Frames: 5
Frame Time: 0.00208333
55.91 96.6348 52.5798 -0.56045 -3.56212 0.540059 0.461868 -1.28893 0.0616313 0.917566 1.4251 0.0674275 0.917354 3.07006 0.0520943 -6.04332 17.7094 -11.6907 9.90921 15.1252 -14.1821 59.0353 -10.4416 -6.49811 113.107 21.2748 21.8676 -2.72341e-005 4.11935e-006 1.97371e-005 3.55927 1.32751 -0.577892 -7.69094e-006 6.65225e-006 -3 8.02981 -4.95142 0.697644 -63.4969 -6.47967 4.23044 -108.87 19.4306 -8.93227 1.94688e-005 -3.78355e-006 1.07638e-005 -8.12171 0.0627138 1.20621 4.42015e-006 -2.92495e-007 3.04829 -8.02914 -4.95145 -0.697676 175.939 0.0714083 2.78097 180 7.01535e-015 178.871 177.578 7.62477 179.897 3.98723e-007 3.14543e-006 0.0911295 -18.5403 67.7626 19.3356 8.13649 25.2327 -3.48773 -175.835 -0.621666 -0.428128 4.5067e-006 -1.99009e-005 -1.13465 -1.53469 -9.2075 0.227633 -1.6041e-006 -1.61639e-006 -0.172122 19.708 69.2213 -20.6046 -8.14411 25.3516 3.32688 
55.9096 96.6223 52.5798 -0.563161 -3.55865 0.542876 0.46171 -1.28729 0.0621853 0.917745 1.42838 0.0689875 0.917522 3.07334 0.053652 -6.02874 17.708 -11.694 9.89673 15.1218 -14.18 59.0354 -10.4441 -6.49969 113.093 21.2744 21.9353 -2.72341e-005 4.11935e-006 1.97371e-005 3.51373 1.3041 -0.573355 -7.69094e-006 6.65225e-006 -3 8.02981 -4.95142 0.697644 -63.4878 -6.48173 4.23122 -108.876 19.4257 -8.94854 1.94688e-005 -3.78355e-006 1.07638e-005 -8.11416 0.062715 1.20997 4.42015e-006 -2.92495e-007 3.04829 -8.02914 -4.95145 -0.697676 175.944 0.0763246 2.77633 180 7.01535e-015 178.871 177.58 7.62604 179.897 3.98723e-007 3.14543e-006 0.0911295 -18.5419 67.7645 19.3373 8.13649 25.2327 -3.48773 -175.832 -0.612151 -0.428625 4.5067e-006 -1.99009e-005 -1.13465 -1.53331 -9.21561 0.227874 -1.6041e-006 -1.61639e-006 -0.172201 19.7114 69.2249 -20.6082 -8.14408 25.3512 3.32741 
55.9086 96.633 52.5779 -0.566014 -3.55522 0.545586 0.461538 -1.28567 0.0627532 0.917913 1.43162 0.0705931 0.91768 3.07658 0.0552555 -6.01343 17.7065 -11.6973 9.8835 15.1185 -14.1777 59.0358 -10.4465 -6.50123 113.078 21.2742 22.005 -2.72341e-005 4.11935e-006 1.97371e-005 3.46679 1.28011 -0.568686 -7.69094e-006 6.65225e-006 -3 8.02981 -4.95142 0.697644 -63.4783 -6.48392 4.23207 -108.883 19.4203 -8.96266 1.94688e-005 -3.78355e-006 1.07638e-005 -8.10778 0.062716 1.21366 4.42015e-006 -2.92495e-007 3.04828 -8.02914 -4.95145 -0.697676 175.95 0.0814914 2.77106 180 7.01535e-015 178.871 177.584 7.62787 179.897 3.98723e-007 3.14543e-006 0.0911295 -18.5438 67.7669 19.3394 8.13649 25.2327 -3.48773 -175.829 -0.602115 -0.429277 4.5067e-006 -1.99009e-005 -1.13465 -1.53192 -9.22483 0.228134 -1.6041e-006 -1.61639e-006 -0.172318 19.7154 69.2291 -20.6125 -8.14405 25.3507 3.328 
55.9164 96.6341 52.5745 -0.568967 -3.55179 0.548223 0.461356 -1.28407 0.0633307 0.918074 1.43482 0.0722306 0.917829 3.07978 0.0568911 -5.99761 17.7048 -11.7006 9.86973 15.115 -14.1753 59.0365 -10.4489 -6.50273 113.063 21.2742 22.0761 -2.72341e-005 4.11935e-006 1.97371e-005 3.41886 1.25571 -0.563924 -7.69094e-006 6.65225e-006 -3 8.02981 -4.95142 0.697644 -63.4685 -6.48622 4.23295 -108.891 19.4146 -8.97528 1.94688e-005 -3.78355e-006 1.07638e-005 -8.10222 0.062717 1.2173 4.42015e-006 -2.92495e-007 3.04828 -8.02914 -4.95145 -0.697676 175.955 0.0868335 2.76537 180 7.01535e-015 178.871 177.588 7.63011 179.897 3.98723e-007 3.14543e-006 0.0911295 -18.546 67.7695 19.3417 8.13649 25.2327 -3.48773 -175.825 -0.591714 -0.430038 4.5067e-006 -1.99009e-005 -1.13465 -1.53052 -9.23484 0.228407 -1.6041e-006 -1.61639e-006 -0.172462 19.7198 69.2338 -20.6172 -8.14402 25.3503 3.32862 
55.917 96.634 52.5734 -0.571977 -3.54839 0.550816 0.46117 -1.28248 0.0639139 0.918231 1.43801 0.0738863 0.917975 3.08297 0.0585449 -5.9815 17.703 -11.704 9.85565 15.1116 -14.1727 59.0373 -10.4512 -6.50422 113.048 21.2743 22.148 -2.72341e-005 4.11935e-006 1.97371e-005 3.37036 1.23108 -0.559109 -7.69094e-006 6.65225e-006 -3 8.02981 -4.95142 0.697644 -63.4586 -6.48857 4.23387 -108.9 19.4087 -8.98705 1.94688e-005 -3.78355e-006 1.07638e-005 -8.09713 0.0627178 1.22091 4.42015e-006 -2.92495e-007 3.04827 -8.02914 -4.95145 -0.697676 175.962 0.0922758 2.75943 180 7.01535e-015 178.871 177.592 7.63257 179.897 3.98723e-007 3.14543e-006 0.0911295 -18.5483 67.7723 19.3442 8.13649 25.2327 -3.48773 -175.821 -0.581106 -0.430861 4.5067e-006 -1.99009e-005 -1.13465 -1.52911 -9.2453 0.228687 -1.6041e-006 -1.61639e-006 -0.172622 19.7244 69.2387 -20.6222 -8.14399 25.3498 3.32925 
